<?xml version="1.0" encoding="UTF-8"?><svg id="Layer_1" xmlns="http://www.w3.org/2000/svg" viewBox="0 0 619.72 600.05"><defs><style>.cls-1{fill:#ebeef0;}.cls-2{fill:#ebeeef;}.cls-3{fill:#f0f0f0;}.cls-4{fill:#eaeef0;}.cls-5{fill:#eebda2;}.cls-6{fill:#eebca1;}.cls-7{fill:#fdd4b6;}.cls-8{fill:#656565;}.cls-9{fill:#666564;}.cls-10{fill:#323232;}.cls-11{fill:#333;}.cls-12{fill:#d6c0b5;}.cls-13{fill:#6e6965;}.cls-14{fill:#343333;}.cls-15{fill:none;stroke:#656565;stroke-miterlimit:10;stroke-width:16px;}</style></defs><path class="cls-12" d="M557.22,600.05c-49.43-35.47-200.13-131.55-249.68-166.86-10.46-7.46-20.98-14.84-31.47-22.25-1.67-2.23-.14-3.92,1.08-5.51,8.3-10.84,16.2-21.98,24.28-32.98,10.98-14.96,22.22-29.72,32.82-44.96,1.07-1.54,2.37-2.8,3.9-3.85,1.62-2.14,3.11-1.42,4.96-.09,25.3,18.17,50.65,36.28,76,54.39,46.27,33.07,154.33,98.7,200.6,131.76"/><path class="cls-7" d="M160.84,219.51c4.66,.45,7.74-2.73,10.84-5.24,4.54-3.68,9.13-7.15,14.76-8.82,8.25-2.45,16.49-2.7,24.72,.4,16.35,6.18,27.08,18.49,36.36,32.58,8.31,12.62,14.38,26.43,21.54,39.66,4.32,7.99,8.79,15.42,16.99,20.77,7.53,4.91,14.26,11.2,21.95,16.07,2.66,1.94,.92,4.01-.27,5.46-3.53,4.31-6.57,8.96-9.9,13.4-9.12,12.17-18.15,24.41-26.95,36.81-1.39,1.95-2.85,3.81-4.43,5.57-2.75,3.07-5.44,3.36-8.56,.56-1.24-1.12-2.52-1.73-4.03-2.13-6.13-3.39-12.74-5.66-19.32-7.86-9.9-3.32-20.28-5.38-29.65-10.11-4.89-2.47-9.44-5.83-13.09-10.16-1.08-1.29-2.13-2.77-4.06-2.97-2.11-4.49-5.33-8.3-7.8-12.57-5.14-7.95-10.68-15.66-15.43-23.87-5.36-6.91-9.57-14.6-14.56-21.75-4.86-6.96-5.04-14.59-.4-21.9,6.66-10.06,19.67-10.54,27.3-5.17,1.42,1,2.76,2.06,3.72,3.51,4.02,6.05,8.27,11.95,11.95,18.22,1.66,3.64,4.36,6.58,6.65,9.79,1.31,1.83,2.12,1.61,2.78-.51,1.62-5.22,0-9.92-2.38-14.41-4.13-7.78-10.21-14.02-16.35-20.21-2.28-4.05-3.49-8.48-4.71-12.92,.11-1.23,1.01-2.12,1.39-3.22,.92-2.68,.53-5.22-1.23-7.42-1.73-2.15-4.12-1.97-6.51-1.42-2.04,.47-3.93,1.5-6.07,1.63-1.31-.06-2.43-.68-2.77-1.86-.97-3.26-3.57-6.14-2.48-9.91Z"/><path class="cls-3" d="M253.87,374.61c2.21-.45,3.82,.88,5.4,2.02,2.52,1.81,4.54,1.64,6.42-.95,9.62-13.3,19.47-26.43,29.07-39.74,3.58-4.96,6.8-10.31,11.21-14.73,1.55-1.56,3.43-3.52,2.03-6.27,6.8-2.61,13.9-2.45,21.02-2.44,3.99,0,6.3,1.62,6.75,5.54,.17,1.43,.34,2.31,2.02,1.8-12.84,17.67-25.66,35.37-38.54,53.01-7.26,9.95-14.65,19.81-21.94,29.74-.97,1.32-2.55,2.51-1.6,4.55-2.4-3.31-4.05-6.83-3.56-11.1,.37-3.24-.56-5.29-4.41-3.97-.12,.04-.26,.03-.39,.04-9.08,.88-12.59-2.6-10.9-11.51,.58-3.04,.06-4.74-2.58-5.98Z"/><path class="cls-6" d="M150.39,264c-4.52,6.69-4.16,14.48,.58,20.97,3.03,4.15,5.88,8.47,8.32,12.98,1.77,3.27,4.96,5.46,6.24,9,.76,4.68,3.42,8.71,4.55,13.26,.4,1.6,1.51,3.17,.33,4.88-8.77,.29-16.3-5.64-18.17-15.01-.71-3.55-1.65-2.97-3.9-1.49-5,3.3-10.36,3.36-15.31,.21-4.91-3.13-7.43-7.81-6.48-13.88,.12-.77,.25-1.57,.55-2.27,1.87-4.37,1.67-4.88-2.85-5.47-11.78-1.52-13.86-11.4-9.26-20.03,3.86-7.24,10.65-12.04,16.25-17.82,2.28-2.35,4.77-4.49,7.17-6.73,.94,.73,.97,1.81,1.05,2.84,.29,3.52,2.11,5.8,5.44,6.91,3.64,3.03,3.61,7.79,5.48,11.65Z"/><path class="cls-8" d="M160.84,219.51c1.01,3,2.04,5.99,3.01,9.01,.4,1.24,.97,2.17,2.46,2.07,.17,.82-.33,1.27-.98,1.47-6.44,1.94-12.67,4.49-19.1,6.46-.99,.3-2.04,.62-3.06,0,.26-2.06-.7-3.83-1.33-5.67-3.06-8.92-6.11-17.84-9.16-26.77,.57-1.65,2.11-1.82,3.47-2.26,5.62-1.84,11.3-3.53,16.71-5.97,2.66,7.22,5.32,14.44,7.97,21.67Z"/><path class="cls-10" d="M143.18,238.52c7.71-2.64,15.42-5.29,23.14-7.93,1.48-.55,2.95-1.11,4.43-1.66,3.42-1.29,6.72-1.74,9.17,1.78,2.7,3.89,2.38,7.38-.87,11-1.01,1.55-2.65,2.15-4.27,2.68-8.15,2.68-16.18,5.71-24.32,8.4-1.89,.62-3.77,1.33-5.72,.18-4.96-1.11-6.8-4.13-6.31-10.36,1.13-1.89,2.78-3.18,4.76-4.08Z"/><path class="cls-14" d="M180.76,330.77c2.14,3.19,4.3,6.36,6.4,9.58,.61,.94,1.68,1.87,.59,3.16-1.77,.47-3.58,.8-5.29,1.43-3.57,1.31-6.98,1.74-9.64-1.65-2.77-3.52-2.58-6.71,.38-11.02,2.29-1.64,4.37-4.35,7.56-1.5Z"/><path class="cls-11" d="M152.87,197.84c-.77,1.78-2.38,2.33-4.05,2.88-5.38,1.77-10.76,3.57-16.13,5.36-1.34-2.53-2.56-5.12-3.15-7.95,5.64-1.63,11.25-3.34,16.92-4.84,1.5-.4,2.74-2.51,4.63-.88,.59,1.81,1.18,3.62,1.77,5.44Z"/><path class="cls-13" d="M180.76,330.77c-2.89-1.39-5.02,1.08-7.56,1.5-.42-2.59-1.17-5.04-2.8-7.16-1.59-4.73-3.25-9.44-4.72-14.21-.38-1.22-1.77-2.57-.16-3.93,5.08,7.94,10.16,15.88,15.24,23.81Z"/><path class="cls-4" d="M346.93,433.78c.04,3.13-2.62,5.85-5.74,5.88-3.02,.03-5.88-2.78-5.9-5.79-.03-3.14,2.65-5.84,5.78-5.84,3.17,0,5.82,2.6,5.86,5.75Z"/><path class="cls-1" d="M308.92,406.18c-.03,3.18-2.65,5.76-5.8,5.72-3.18-.04-5.69-2.65-5.65-5.87,.03-3.14,2.72-5.8,5.81-5.75,3.1,.04,5.67,2.74,5.64,5.9Z"/><path class="cls-2" d="M322.13,425.7c-3.21-.04-5.73-2.61-5.69-5.82,.03-3.23,2.57-5.7,5.82-5.66,3.26,.04,5.7,2.53,5.68,5.79-.02,3.22-2.59,5.73-5.8,5.69Z"/><path class="cls-9" d="M144.72,252.97c6.21-.68,11.75-3.6,17.62-5.39,5.64-1.72,11.13-3.9,16.69-5.88,1.65,4.25,3.29,8.49,4.94,12.74,4.06,7.45,6.19,15.63,8.84,23.61,.31,.93,.97,2.43-1.03,2.66-3.81-5.87-7.43-11.86-11.46-17.57-7.26-10.29-22.33-9.78-29.93,.87-2.24-1.02-2.06-3.4-2.88-5.2-.9-1.96-1.02-4.29-2.78-5.84Z"/><path class="cls-5" d="M191.78,280.71c1.36-1.59-.11-2.94-.51-4.28-2.21-7.4-5.45-14.46-7.3-21.98,8.44,7.81,16.36,15.98,19.25,27.65,.25,1.01,.57,2.09,.45,3.09-.32,2.7,0,6.48-2.55,7.41-2.11,.77-3.02-3.01-4.49-4.72-1.87-2.18-3.74-4.44-4.85-7.16Z"/><path class="cls-15" d="M8,101.06C8,49.66,55.5,8,106.89,8s93.06,41.66,93.06,93.06-41.66,93.06-93.06,93.06S8,152.45,8,101.06Z"/></svg>