<?xml version="1.0" encoding="utf-8"?>
<!-- Generator: Adobe Illustrator 27.0.1, SVG Export Plug-In . SVG Version: 6.00 Build 0)  -->
<svg version="1.1" id="Layer_1" xmlns="http://www.w3.org/2000/svg" xmlns:xlink="http://www.w3.org/1999/xlink" x="0px" y="0px"
	 viewBox="0 0 576 512" style="enable-background:new 0 0 576 512;" xml:space="preserve">
<style type="text/css">
	.st0{fill:#FFFFFF;}
</style>
<path class="st0" d="M208,256c35.4,0,64-28.6,64-64s-28.6-64-64-64s-64,28.6-64,64C144,227.3,172.7,256,208,256z M464,232h-96
	c-13.2,0-24,10.8-24,24s10.8,24,24,24h96c13.2,0,24-10.8,24-24S477.3,232,464,232z M240,288h-64c-44.2,0-80,35.8-80,80
	c0,8.8,7.2,16,16,16h192c8.8,0,16-7.2,16-16C320,323.8,284.2,288,240,288z M464,152h-96c-13.2,0-24,10.8-24,24s10.8,24,24,24h96
	c13.2,0,24-10.8,24-24S477.3,152,464,152z M512,32H64C28.6,32,0,60.7,0,96v320c0,35.4,28.6,64,64,64h448c35.3,0,64-28.6,64-64V96
	C576,60.7,547.3,32,512,32z M528,416c0,8.8-7.2,16-16,16H64c-8.8,0-16-7.2-16-16V96c0-8.8,7.2-16,16-16h448c8.8,0,16,7.2,16,16V416z
	"/>
</svg>
