<?xml version="1.0" encoding="UTF-8"?><svg id="Layer_1" xmlns="http://www.w3.org/2000/svg" viewBox="0 0 685.27 557.64"><defs><style>.cls-1{fill:#383838;}.cls-1,.cls-2,.cls-3,.cls-4{stroke:#383838;stroke-linecap:round;stroke-linejoin:round;}.cls-2,.cls-5{fill:#323947;}.cls-3{fill:#f5dac0;}.cls-4,.cls-6,.cls-7,.cls-8{fill:#fff;}.cls-9{fill:#f7d9c4;}.cls-7{opacity:.7;}.cls-7,.cls-8{isolation:isolate;}.cls-8{opacity:.5;}</style></defs><path class="cls-9" d="M59.82,417.13c97.54,89.85,186.42,92.84,312,102.92,125.58,10.08,214.12-16.08,274.1-83.36,69.25-77.76,48.83-236.28-74.95-279.97-38.67-13.69-83-14.26-117.91-35.65C386.4,80.27,328.6,11.76,228.42,8.67,128.24,5.58,68.97,79.04,68.97,79.04-2.34,176.63-37.73,327.21,59.82,417.13Z"/><path class="cls-7" d="M61.81,372.43c83.33,95.52,167.48,107.61,285.76,130.24,118.28,22.64,205.12,6.99,269.12-50.7,73.89-66.68,70.97-219.43-42.1-273.82-35.32-17.03-77.39-22.19-108.33-46.14C407.16,86.31,359.37,15.2,264.5,1.84,169.63-11.51,105.67,52.12,105.67,52.12,27.76,137.44-21.53,276.84,61.81,372.43Z"/><path class="cls-9" d="M660.61,526.27H24.82v31.38H660.61v-31.38Z"/><path class="cls-8" d="M660.61,526.27H18.42v31.38H660.61v-31.38Z"/><path class="cls-4" d="M357.06,491.74v-39.85h-117.35v39.85c-.02,12.98-4.41,25.57-12.47,35.75l-5.14,6.47h152.57l-5.14-6.47c-8.06-10.17-12.45-22.77-12.47-35.75Z"/><path class="cls-5" d="M232.5,519.64h131.78c-4.73-8.54-7.21-18.14-7.22-27.9v-39.85h-117.35v39.85c0,9.76-2.48,19.36-7.22,27.9h0Z"/><path class="cls-2" d="M517.57,110.71H79.19c-9.18,0-16.63,7.44-16.63,16.63V447.83c0,9.18,7.45,16.63,16.63,16.63h438.38c9.18,0,16.63-7.44,16.63-16.63V127.34c0-9.18-7.44-16.63-16.63-16.63Z"/><path class="cls-4" d="M62.56,409.47h471.66v38.34c0,4.41-1.75,8.64-4.87,11.76-3.12,3.12-7.35,4.87-11.76,4.87H79.21c-4.41,0-8.64-1.75-11.76-4.87-3.12-3.12-4.87-7.35-4.87-11.76h0v-38.34h-.02Z"/><path class="cls-4" d="M510.49,132.73H86.29v249.91H510.49V132.73Z"/><path class="cls-1" d="M307.1,436.96c0-1.72-.51-3.41-1.47-4.84-.96-1.43-2.32-2.55-3.91-3.21-1.59-.66-3.34-.83-5.03-.5-1.69,.34-3.24,1.16-4.46,2.38-1.22,1.22-2.05,2.77-2.38,4.46-.34,1.69-.16,3.44,.5,5.03,.66,1.59,1.78,2.95,3.21,3.91,1.43,.96,3.11,1.47,4.84,1.47,2.31,0,4.52-.92,6.16-2.55,1.63-1.63,2.55-3.85,2.55-6.16h0Z"/><path class="cls-4" d="M374.69,534.03H222.11v7.12h152.59v-7.12Z"/><path class="cls-4" d="M506.51,150.34H89.62v21.9H506.51v-21.9Z"/><path class="cls-3" d="M158.41,172.25l-5-13.53h-63.79v213.28H506.51V172.25H158.41Z"/><path class="cls-4" d="M386.97,220.06H209.83c-1.82,0-3.63-.35-5.32-1.05-1.68-.7-3.22-1.72-4.51-3-1.29-1.29-2.32-2.82-3.02-4.5-.7-1.68-1.06-3.49-1.06-5.31h0c0-1.82,.35-3.63,1.05-5.31,.7-1.68,1.72-3.22,3-4.51,1.29-1.29,2.82-2.32,4.5-3.02,1.68-.7,3.49-1.06,5.31-1.06h177.18c1.83,0,3.64,.35,5.32,1.05,1.69,.7,3.22,1.72,4.51,3.01,1.29,1.29,2.32,2.83,3.01,4.51,.7,1.69,1.06,3.5,1.05,5.32h0c0,1.82-.36,3.63-1.06,5.31-.7,1.68-1.72,3.21-3.02,4.5s-2.82,2.31-4.51,3c-1.69,.7-3.49,1.05-5.31,1.05Z"/><path class="cls-1" d="M386.97,220.05h-24.2v-27.81h24.2c1.83,0,3.64,.35,5.32,1.05,1.69,.7,3.22,1.72,4.51,3.01,1.29,1.29,2.31,2.83,3.01,4.51,.7,1.69,1.06,3.5,1.05,5.32h0c0,1.83-.35,3.64-1.05,5.32-.7,1.69-1.72,3.22-3.01,4.51-1.29,1.29-2.83,2.32-4.51,3.01-1.69,.7-3.5,1.06-5.32,1.05h0Z"/><path class="cls-6" d="M381.58,195.78c-1.15-1.08-2.6-1.79-4.16-2.05-1.56-.26-3.16-.05-4.6,.61-1.44,.65-2.65,1.72-3.48,3.06-.83,1.34-1.25,2.9-1.2,4.48,.05,1.58,.57,3.1,1.49,4.39,.92,1.28,2.2,2.26,3.68,2.82,1.48,.56,3.09,.66,4.62,.3,1.54-.36,2.93-1.17,4.01-2.32h0c.72-.76,1.28-1.66,1.65-2.63,.37-.98,.55-2.02,.51-3.07-.03-1.05-.27-2.08-.7-3.03-.43-.95-1.05-1.81-1.81-2.53l-.02-.02Zm-.78,10.2c-.87,.92-1.98,1.56-3.22,1.85-1.23,.28-2.52,.2-3.7-.25-1.18-.45-2.2-1.23-2.94-2.26-.73-1.03-1.15-2.25-1.19-3.51-.04-1.26,.29-2.51,.96-3.58,.67-1.07,1.64-1.92,2.79-2.45,1.15-.52,2.43-.69,3.67-.49,1.25,.2,2.41,.77,3.33,1.63,1.24,1.16,1.97,2.77,2.02,4.47,.06,1.7-.57,3.35-1.73,4.59h0Z"/><path class="cls-6" d="M387.58,209.96c-.17-.17-.4-.29-.64-.34-.24-.05-.49-.03-.72,.06l-2.88-2.71c-.15-.14-.34-.22-.55-.22s-.4,.08-.55,.22l-.25,.28c-.14,.15-.22,.35-.22,.56s.08,.41,.22,.56l2.84,2.67c-.08,.24-.1,.5-.04,.75,.06,.25,.19,.48,.37,.66l4.9,4.8c.32,.32,.76,.5,1.22,.5s.89-.18,1.22-.5h0c.32-.32,.5-.76,.5-1.22s-.18-.89-.5-1.22l-4.92-4.86Z"/></svg>