<?xml version="1.0" encoding="utf-8"?>
<!-- Generator: Adobe Illustrator 27.0.1, SVG Export Plug-In . SVG Version: 6.00 Build 0)  -->
<svg version="1.1" id="Layer_1" xmlns="http://www.w3.org/2000/svg" xmlns:xlink="http://www.w3.org/1999/xlink" x="0px" y="0px"
	 viewBox="0 0 512 512" style="enable-background:new 0 0 512 512;" xml:space="preserve">
<style type="text/css">
	.st0{fill:#FFFFFF;}
</style>
<path class="st0" d="M304,48c0,26.5-21.5,48-48,48s-48-21.5-48-48s21.5-48,48-48S304,21.5,304,48z M248,352v128
	c0,17.7-14.3,32-32,32s-32-14.3-32-32V256.9l-28.6,47.5c-9.1,15.1-28.8,20-43.9,10.9s-20-28.8-10.9-43.9l58.3-97
	c17.4-28.9,48.6-46.6,82.3-46.6h29.7c33.7,0,64.9,17.7,82.3,46.6l58.3,97c9.1,15.1,4.2,34.8-10.9,43.9s-34.8,4.2-43.9-10.9
	L328,256.9V480c0,17.7-14.3,32-32,32s-32-14.3-32-32V352H248z M7,7c9.4-9.3,24.6-9.3,34,0l80,80c9.4,9.4,9.4,24.6,0,33.9
	s-24.6,9.4-33.9,0L7,41C-2.3,31.6-2.3,16.4,7,7z M471,7c9.4-9.4,24.6-9.4,33.9,0c9.3,9.4,9.4,24.6,0,33.9l-80,80
	c-9.4,9.4-24.6,9.4-33.9,0s-9.4-24.6,0-33.9L471,7z M7,505c-9.4-9.4-9.4-24.6,0-33.9l80-80c9.4-9.4,24.6-9.4,33.9,0s9.4,24.6,0,33.9
	L41,505C31.6,514.4,16.4,514.4,7,505L7,505z M471,505l-80-80c-9.4-9.4-9.4-24.6,0-33.9s24.6-9.4,33.9,0l80,80
	c9.4,9.4,9.4,24.6,0,33.9S480.3,514.4,471,505z"/>
</svg>
